<svg width="531" height="126" viewBox="0 0 531 126" fill="none" xmlns="http://www.w3.org/2000/svg">
<path d="M148.756 110.02C131.667 110.02 121.04 97.7779 121.04 76.6939C121.04 55.6099 131.667 43.3676 148.756 43.3676C165.844 43.3676 176.471 55.6099 176.471 76.6939C176.471 97.7779 165.844 110.02 148.756 110.02ZM134.813 76.6939C134.813 91.0616 139.574 99.3932 148.756 99.3932C157.937 99.3932 162.698 91.0616 162.698 76.6939C162.698 62.3262 157.937 53.9946 148.756 53.9946C139.574 53.9946 134.813 62.3262 134.813 76.6939ZM186.434 125.663V62.8363H199.272V73.1232C201.312 67.0871 206.413 61.8161 213.98 61.8161C224.947 61.8161 232.428 72.103 232.428 85.9607C232.428 99.8183 225.032 110.02 213.98 110.02C207.178 110.02 201.652 105.684 199.272 99.8183V125.663H186.434ZM198.762 85.9607C198.762 95.2274 202.332 101.179 208.964 101.179C215.595 101.179 219.08 95.2274 219.08 85.9607C219.08 76.6089 215.595 70.6578 208.964 70.6578C202.332 70.6578 198.762 76.6089 198.762 85.9607ZM267.046 110.02C253.018 110.02 244.177 100.073 244.177 85.8756C244.177 71.678 253.274 61.8161 267.046 61.8161C280.054 61.8161 289.915 70.5728 289.915 86.1307C289.915 87.0659 289.83 88.5962 289.745 89.7864H257.354C258.289 97.6079 261.86 101.179 267.131 101.179C271.892 101.179 274.528 98.9681 275.803 95.3124H288.895C285.92 105.259 277.843 110.02 267.046 110.02ZM257.524 81.1147H276.653C276.058 74.6535 272.402 70.6578 267.046 70.6578C262.03 70.6578 258.545 73.8884 257.524 81.1147ZM304.3 109V62.8363H317.137V72.2731C319.263 66.407 323.768 61.8161 331.42 61.8161C341.877 61.8161 346.298 69.5526 346.298 79.7545V109H333.29V82.56C333.29 74.4835 330.4 70.9128 325.299 70.9128C320.198 70.9128 317.307 74.5685 317.307 82.73V109H304.3ZM354.816 109L371.564 44.3878H395.454L412.202 109H398.514L394.603 92.847H372.414L368.503 109H354.816ZM375.135 81.5398H391.883L383.466 46.6833L375.135 81.5398ZM420.125 109V44.3878H443.334C459.827 44.3878 469.179 52.2943 469.179 65.4718C469.179 78.6493 459.912 86.5558 443.334 86.5558H433.557V109H420.125ZM433.557 75.4187H443.504C451.071 75.4187 455.406 72.018 455.406 65.4718C455.406 58.9256 451.071 55.4399 443.504 55.4399H433.557V75.4187ZM477.612 109V97.7779H494.105V55.6099H477.612V44.3878H524.031V55.6099H507.538V97.7779H524.031V109H477.612Z" fill="white"/>
<path d="M31.7116 74.3702H0.0482254C0.0542264 74.5263 0.0582271 74.6803 0.0662285 74.8344C0.0782305 75.1324 0.100234 75.4285 0.118237 75.7266C0.126239 75.8546 0.13224 75.9827 0.142241 76.1087C0.166245 76.4528 0.196251 76.7969 0.228256 77.139C0.236257 77.217 0.242258 77.295 0.25026 77.3691C0.286266 77.7512 0.328273 78.1333 0.372281 78.5114C0.374281 78.5474 0.378282 78.5854 0.384283 78.6214C0.434291 79.0295 0.4863 79.4396 0.54631 79.8457C0.54631 79.8517 0.54631 79.8577 0.548311 79.8617C0.913373 82.3918 1.46021 84.8923 2.18459 87.3437C2.18859 87.3537 2.19259 87.3638 2.19459 87.3738C2.30861 87.7619 2.42863 88.146 2.55065 88.5281C2.55865 88.5501 2.56665 88.5741 2.57266 88.5961C2.57866 88.6181 2.58666 88.6401 2.59466 88.6641C2.70668 89.0102 2.8247 89.3543 2.94272 89.7004C2.97272 89.7864 3.00273 89.8744 3.03473 89.9625C3.14075 90.2605 3.24877 90.5586 3.36079 90.8587C3.4128 90.9927 3.46281 91.1268 3.51282 91.2628C3.61083 91.5109 3.70485 91.7569 3.80286 92.003C3.87688 92.1891 3.95289 92.3751 4.0309 92.5592C4.11092 92.7532 4.19093 92.9433 4.27294 93.1373C4.37296 93.3734 4.47898 93.6074 4.583 93.8435C4.64501 93.9835 4.70902 94.1216 4.77103 94.2616C4.89905 94.5437 5.03107 94.8258 5.1651 95.1058C5.2091 95.1959 5.25111 95.2859 5.29512 95.3739C5.45115 95.698 5.60917 96.0161 5.7692 96.3342C5.7972 96.3822 5.81921 96.4322 5.84521 96.4802C6.02524 96.8323 6.20927 97.1824 6.39931 97.5305C6.40731 97.5465 6.41731 97.5605 6.42331 97.5785C6.46332 97.6505 6.50733 97.7206 6.54733 97.7926L33.5899 81.5022L33.69 81.4422C32.6238 79.1935 31.9597 76.8009 31.7116 74.3702Z" fill="#65BA77"/>
<path d="M39.4946 88.9081L39.4186 88.9841L17.1148 111.288C17.2288 111.394 17.3428 111.504 17.4609 111.606C17.6689 111.796 17.8809 111.982 18.091 112.168C18.201 112.264 18.307 112.36 18.417 112.456C18.6691 112.675 18.9251 112.887 19.1792 113.101C19.2492 113.159 19.3152 113.215 19.3852 113.273C19.7093 113.539 20.0367 113.802 20.3674 114.061C20.6834 114.311 21.0015 114.553 21.3255 114.797C21.3395 114.805 21.3495 114.813 21.3615 114.823C22.7072 115.829 24.0997 116.77 25.5342 117.644C25.5822 117.676 25.6322 117.704 25.6823 117.736C25.9563 117.898 26.2284 118.06 26.5044 118.22L27.0085 118.508C27.1685 118.6 27.3265 118.688 27.4866 118.776C27.7766 118.934 28.0667 119.092 28.3587 119.246C28.3987 119.268 28.4387 119.29 28.4807 119.31C29.2909 119.734 30.115 120.129 30.9472 120.509L31.7393 118.586L42.9572 91.3447L42.9972 91.2447C41.773 90.5885 40.5988 89.8123 39.4946 88.9081V88.9081Z" fill="#F4F0E2"/>
<path d="M37.1723 86.6855C36.9326 86.4187 36.7005 86.1452 36.4762 85.8653C36.2762 85.6192 36.0841 85.3711 35.8981 85.1191C35.6841 84.831 35.476 84.5389 35.278 84.2428C35.08 83.9447 34.8839 83.6447 34.6999 83.3406L7.62328 99.651C8.03935 100.343 8.47142 101.015 8.9155 101.68C8.9295 101.704 8.9435 101.728 8.9595 101.75C8.9635 101.76 8.9695 101.766 8.97551 101.776C8.98951 101.796 9.00351 101.82 9.01751 101.842C9.01951 101.844 9.02151 101.846 9.02151 101.85C9.05752 101.902 9.09353 101.954 9.12953 102.008C9.13153 102.01 9.13353 102.014 9.13753 102.018C9.14153 102.022 9.13953 102.02 9.13953 102.022C9.60961 102.716 10.0937 103.4 10.5918 104.068C10.6018 104.082 10.6138 104.096 10.6238 104.11C10.6358 104.124 10.6458 104.138 10.6558 104.152C10.8738 104.438 11.0899 104.724 11.3139 105.008C11.3439 105.046 11.3719 105.082 11.4039 105.118C11.632 105.413 11.866 105.703 12.104 105.989C12.16 106.057 12.2181 106.125 12.2741 106.195C12.4881 106.451 12.7021 106.705 12.9202 106.957C13.0142 107.065 13.1102 107.175 13.2062 107.281C13.3923 107.493 13.5763 107.705 13.7663 107.913C13.8703 108.027 13.9784 108.143 14.0844 108.257C14.1324 108.311 14.1804 108.361 14.2304 108.415C14.3684 108.565 14.5064 108.715 14.6465 108.863C14.7025 108.921 14.7625 108.98 14.8185 109.04C15.0645 109.296 15.3146 109.554 15.5666 109.806L37.9044 87.4697C37.6484 87.2136 37.4083 86.9496 37.1723 86.6855V86.6855Z" fill="#CAC6B9"/>
<path d="M66.7798 88.896C66.5337 89.094 66.2857 89.2881 66.0336 89.4741L66.0877 89.5682L82.3744 116.601C83.1286 116.109 83.8747 115.601 84.6028 115.067C86.1791 113.905 87.7033 112.644 89.1736 111.288L66.8678 88.984L66.7798 88.896Z" fill="#F4F0E2"/>
<path d="M80.0075 116.824L79.4554 115.905L64.2529 90.6726C63.9448 90.8566 63.6308 91.0247 63.3167 91.1927C62.9986 91.3648 62.6806 91.5228 62.3565 91.6768C59.436 93.0612 56.2755 93.7694 53.109 93.7694C51.0346 93.7694 48.9623 93.4693 46.9579 92.8712C46.6159 92.7691 46.2818 92.6351 45.9457 92.5151C45.6077 92.397 45.2656 92.293 44.9336 92.157L33.7237 119.38L33.2856 120.447L32.9095 121.361L32.9075 121.365C32.9355 121.377 32.9655 121.387 32.9935 121.399C33.0255 121.411 33.0555 121.421 33.0856 121.435H33.0896C33.0976 121.439 33.1056 121.441 33.1116 121.443C33.3756 121.553 33.6416 121.645 33.9077 121.749C34.2417 121.879 34.5738 122.011 34.9079 122.133C35.0799 122.195 35.2479 122.267 35.418 122.327H35.4199C38.933 123.567 42.566 124.437 46.2598 124.922C46.4058 124.94 46.5478 124.96 46.6939 124.98C46.8439 124.998 46.9959 125.012 47.1479 125.03C47.432 125.062 47.716 125.094 48.0021 125.122L48.2141 125.14C48.5642 125.174 48.9142 125.204 49.2623 125.228C49.3823 125.238 49.5023 125.242 49.6204 125.252C49.9264 125.272 50.2325 125.29 50.5385 125.304C50.7266 125.316 50.9146 125.32 51.1026 125.328C51.3467 125.336 51.5887 125.346 51.8327 125.354C52.1828 125.362 52.5369 125.364 52.8889 125.366C52.9729 125.366 53.055 125.368 53.139 125.37C56.0895 125.37 59.04 125.124 61.9585 124.634C62.0065 124.626 62.0565 124.618 62.1065 124.612C62.4145 124.558 62.7226 124.5 63.0307 124.444C63.2067 124.41 63.3847 124.376 63.5567 124.342C63.7368 124.304 63.9188 124.268 64.0988 124.228C64.3989 124.166 64.6989 124.1 65.001 124.03C65.055 124.018 65.109 124.008 65.163 123.992C69.5998 122.959 73.8845 121.359 77.9092 119.24V119.238C78.1732 119.1 78.4313 118.942 78.6933 118.798C79.0054 118.628 79.3154 118.45 79.6275 118.272C79.8415 118.15 80.0596 118.036 80.2736 117.908C80.2756 117.906 80.2776 117.904 80.2796 117.904H80.2816C80.2856 117.902 80.2876 117.9 80.2916 117.898L80.2956 117.894L80.2556 117.828L80.2956 117.894C80.2976 117.894 80.2996 117.892 80.3016 117.892C80.3056 117.89 80.3076 117.888 80.3116 117.886C80.3236 117.878 80.3356 117.872 80.3476 117.864C80.4156 117.822 80.4856 117.782 80.5556 117.74L80.0075 116.824ZM39.5066 55.5631C39.7527 55.363 40.0027 55.171 40.2528 54.9829L40.1988 54.8909L23.912 27.8556C23.1559 28.3497 22.4097 28.8599 21.6796 29.394C20.1053 30.5543 18.5791 31.8127 17.1128 33.167L39.4186 55.4731L39.5066 55.5631Z" fill="#65BA77"/>
<path d="M15.5667 34.6532C15.3126 34.9073 15.0726 35.1693 14.8245 35.4254C14.5785 35.6835 14.3264 35.9396 14.0844 36.1996C12.4559 37.9603 10.9482 39.8291 9.57163 41.7931C9.50562 41.8832 9.44161 41.9792 9.3756 42.0712C9.22357 42.2953 9.07155 42.5173 8.92352 42.7414C8.76749 42.9735 8.61347 43.2095 8.46344 43.4436C8.40743 43.5296 8.35142 43.6176 8.29741 43.7037C3.16654 51.7518 0.418071 60.8803 0.0480082 70.0848C0.0340058 70.4429 0.0260044 70.801 0.0180031 71.1571C0.012002 71.5132 0 71.8713 0 72.2274H31.5914C31.5914 71.8713 31.6234 71.5152 31.6434 71.1571C31.6614 70.799 31.6654 70.4409 31.7014 70.0848C32.1095 65.9717 33.6977 61.9546 36.4662 58.5817C36.6903 58.3076 36.9443 58.0495 37.1863 57.7855C37.4244 57.5194 37.6484 57.2453 37.9045 56.9892L15.5667 34.6532ZM80.7478 26.8111C80.7057 26.7851 80.6597 26.7591 80.6177 26.7331C80.3397 26.563 80.0596 26.399 79.7776 26.2349C79.6156 26.1409 79.4515 26.0489 79.2895 25.9569C79.1235 25.8648 78.9615 25.7728 78.7954 25.6828C78.5098 25.5273 78.2237 25.3726 77.9373 25.2187C77.8913 25.1966 77.8473 25.1726 77.8013 25.1486C75.9489 24.1804 74.0466 23.3281 72.1043 22.5879C72.0543 22.5679 72.0043 22.5479 71.9543 22.5299C71.5302 22.3719 71.1061 22.2138 70.678 22.0658C67.2259 20.8616 63.6593 20.0149 60.0342 19.5391L59.5902 19.4791C59.4401 19.4611 59.2921 19.4471 59.1441 19.4311C58.858 19.3971 58.574 19.3651 58.2859 19.3371C58.2079 19.3291 58.1279 19.3251 58.0459 19.3151C57.7078 19.2851 57.3658 19.255 57.0257 19.229L56.6276 19.205C56.3376 19.187 56.0415 19.165 55.7515 19.153C55.5955 19.145 55.4394 19.139 55.2854 19.135V50.8016C56.9097 50.9696 58.52 51.3157 60.0822 51.8459L83.3882 28.5416C82.5221 27.9414 81.6479 27.3572 80.7478 26.8111Z" fill="#F4F0E2"/>
<path d="M52.0735 19.1094C51.7155 19.1174 51.3574 19.1174 51.0014 19.1314C48.767 19.2214 46.5366 19.4495 44.3242 19.8216C44.2762 19.8296 44.2282 19.8376 44.1782 19.8456C43.8682 19.8996 43.5601 19.9556 43.252 20.0137C43.078 20.0477 42.902 20.0797 42.726 20.1137C42.5439 20.1497 42.3639 20.1877 42.1819 20.2277C41.8818 20.2897 41.5818 20.3557 41.2837 20.4258C41.2277 20.4358 41.1737 20.4498 41.1197 20.4618C36.6854 21.4972 32.4013 23.0945 28.3715 25.2151C28.1095 25.3551 27.8534 25.5131 27.5914 25.6552C27.2793 25.8272 26.9673 26.0033 26.6572 26.1813C26.4272 26.3154 26.1931 26.4374 25.9631 26.5734C25.9611 26.5754 25.9571 26.5774 25.9551 26.5774C25.9391 26.5874 25.9231 26.5974 25.9071 26.6054C25.8471 26.6434 25.7851 26.6735 25.7251 26.7095L25.7271 26.7135L26.2812 27.6317L42.0338 53.7848C42.3419 53.6007 42.6559 53.4307 42.97 53.2626C43.2861 53.0926 43.6061 52.9326 43.9282 52.7805C46.1544 51.7179 48.5472 51.0472 51.0014 50.798C51.3574 50.762 51.7135 50.732 52.0715 50.714C52.4276 50.6959 52.7857 50.6779 53.1437 50.6779V19.0874C52.7857 19.0874 52.4296 19.1034 52.0735 19.1094Z" fill="#CAC6B9"/>
<path d="M106.221 69.6169C106.205 69.3328 106.189 69.0507 106.169 68.7647C106.161 68.6232 106.152 68.4818 106.141 68.3405C106.119 68.0065 106.091 67.6724 106.058 67.3383C106.052 67.2523 106.044 67.1662 106.036 67.0802C106 66.7061 105.96 66.334 105.916 65.9619C105.912 65.9319 105.91 65.9019 105.906 65.8719L105.9 65.8299C105.852 65.4278 105.798 65.0257 105.742 64.6255L105.736 64.5875C105.372 62.0623 104.826 59.5666 104.104 57.1195C104.098 57.1015 104.094 57.0875 104.088 57.0715C103.974 56.6894 103.856 56.3113 103.738 55.9332C103.72 55.8832 103.704 55.8332 103.688 55.7832C103.576 55.4411 103.462 55.101 103.344 54.7609L103.248 54.4848C103.144 54.1907 103.036 53.8966 102.928 53.6026C102.874 53.4625 102.822 53.3225 102.766 53.1844C102.674 52.9404 102.58 52.6983 102.482 52.4583C102.406 52.2642 102.328 52.0741 102.25 51.8861C102.172 51.696 102.092 51.51 102.014 51.3219C101.91 51.0819 101.804 50.8418 101.698 50.6038C101.638 50.4697 101.578 50.3337 101.516 50.1976C101.386 49.9136 101.252 49.6275 101.118 49.3434C101.076 49.2594 101.034 49.1714 100.992 49.0853C100.836 48.7613 100.676 48.4352 100.512 48.1151C100.49 48.0711 100.466 48.0251 100.444 47.981C100.262 47.6269 100.073 47.2708 99.8854 46.9208C99.8774 46.9088 99.8714 46.8947 99.8634 46.8827C98.9449 45.1944 97.9359 43.5569 96.8409 41.9774L73.529 65.2917C74.059 66.8541 74.4031 68.4646 74.5711 70.087H106.241C106.233 69.929 106.229 69.7709 106.221 69.6169V69.6169Z" fill="#F4F0E2"/>
<path d="M74.6945 72.2275C74.6945 72.5856 74.6605 72.9417 74.6425 73.2998C74.6245 73.6579 74.6185 74.016 74.5825 74.3701C74.1744 78.4852 72.5881 82.5023 69.8196 85.8772C69.5956 86.1513 69.3416 86.4074 69.0995 86.6734C68.8595 86.9375 68.6374 87.2116 68.3814 87.4677L90.7192 109.804C90.9732 109.55 91.2113 109.288 91.4593 109.029C91.7074 108.771 91.9594 108.517 92.1995 108.255C93.8517 106.465 95.364 104.592 96.7242 102.646C96.7802 102.568 96.8302 102.492 96.8843 102.416C97.0503 102.178 97.2103 101.936 97.3743 101.696C97.5164 101.479 97.6584 101.265 97.7964 101.047C97.8664 100.943 97.9344 100.835 98.0004 100.731C103.123 92.6871 105.866 83.5686 106.234 74.3701C106.248 74.014 106.256 73.6559 106.262 73.2978C106.27 72.9417 106.28 72.5856 106.28 72.2275H74.6945Z" fill="#CAC6B9"/>
<path d="M55.9438 61.216L52 69.6852L60.2924 73.5249L111.018 22.6211L114.92 14.1937L106.628 10.3541L55.9438 61.216Z" fill="#FBE331"/>
</svg>
